<svg width="25" height="25" viewBox="0 0 25 25" fill="none" xmlns="http://www.w3.org/2000/svg">
<g id="ArrowUpRight">
<path id="Vector" d="M19.25 6.5V19.25C19.25 19.4489 19.171 19.6397 19.0303 19.7803C18.8897 19.921 18.6989 20 18.5 20C18.3011 20 18.1103 19.921 17.9697 19.7803C17.829 19.6397 17.75 19.4489 17.75 19.25V8.31031L7.03063 19.0306C6.88989 19.1714 6.69902 19.2504 6.5 19.2504C6.30098 19.2504 6.11011 19.1714 5.96938 19.0306C5.82864 18.8899 5.74958 18.699 5.74958 18.5C5.74958 18.301 5.82864 18.1101 5.96938 17.9694L16.6897 7.25H5.75C5.55109 7.25 5.36032 7.17098 5.21967 7.03033C5.07902 6.88968 5 6.69891 5 6.5C5 6.30109 5.07902 6.11032 5.21967 5.96967C5.36032 5.82902 5.55109 5.75 5.75 5.75H18.5C18.6989 5.75 18.8897 5.82902 19.0303 5.96967C19.171 6.11032 19.25 6.30109 19.25 6.5Z" fill="white"/>
</g>
</svg>
