<svg xmlns="http://www.w3.org/2000/svg" width="37" height="37" viewBox="0 0 37 37" fill="none">
  <rect width="36.7914" height="36.7914" rx="18.3957" fill="white" fill-opacity="0.2"/>
  <path d="M15.5656 11.3204C15.1903 11.3204 14.8304 11.4695 14.565 11.7349C14.2996 12.0003 14.1505 12.3602 14.1505 12.7355V14.1505C14.1505 14.5258 14.2996 14.8858 14.565 15.1511C14.8304 15.4165 15.1903 15.5656 15.5656 15.5656H21.2258C21.6011 15.5656 21.961 15.4165 22.2264 15.1511C22.4918 14.8858 22.6409 14.5258 22.6409 14.1505V12.7355C22.6409 12.3602 22.4918 12.0003 22.2264 11.7349C21.961 11.4695 21.6011 11.3204 21.2258 11.3204H15.5656ZM15.5656 12.7355H21.2258V14.1505H15.5656V12.7355ZM22.6409 8.49032H14.1505C13.4 8.49032 12.6801 8.78849 12.1494 9.31924C11.6186 9.84999 11.3204 10.5698 11.3204 11.3204V25.471C11.3204 26.2216 11.6186 26.9414 12.1494 27.4722C12.6801 28.0029 13.4 28.3011 14.1505 28.3011H24.7634C24.9511 28.3011 25.1311 28.2265 25.2637 28.0938C25.3964 27.9612 25.471 27.7812 25.471 27.5935C25.471 27.4059 25.3964 27.2259 25.2637 27.0933C25.1311 26.9606 24.9511 26.886 24.7634 26.886H14.1505C13.7752 26.886 13.4153 26.7369 13.1499 26.4716C12.8846 26.2062 12.7355 25.8463 12.7355 25.471V25.4667H24.7634C24.9511 25.4667 25.1311 25.3922 25.2637 25.2595C25.3964 25.1268 25.471 24.9468 25.471 24.7592V11.3204C25.471 10.5698 25.1728 9.84999 24.6421 9.31924C24.1113 8.78849 23.3915 8.49032 22.6409 8.49032ZM12.7355 24.0517V11.3204C12.7355 10.9451 12.8846 10.5852 13.1499 10.3198C13.4153 10.0545 13.7752 9.90538 14.1505 9.90538H22.6409C23.0162 9.90538 23.3761 10.0545 23.6415 10.3198C23.9068 10.5852 24.0559 10.9451 24.0559 11.3204V24.0517H12.7355Z" fill="white"/>
</svg>