<svg xmlns="http://www.w3.org/2000/svg" width="17" height="17" viewBox="0 0 17 17" fill="none">
  <path d="M14.0115 8.87089L8.89948 13.9751C8.81973 14.0548 8.71161 14.0995 8.59891 14.0994C8.48621 14.0993 8.37816 14.0544 8.29853 13.9747C8.21889 13.8949 8.17421 13.7868 8.17429 13.6741C8.17438 13.5614 8.21923 13.4534 8.29898 13.3737L12.6851 8.9942L4.09562 8.98807C3.98285 8.98799 3.87474 8.94311 3.79507 8.86332C3.71539 8.78352 3.67068 8.67534 3.67076 8.56258C3.67085 8.44981 3.71573 8.3417 3.79552 8.26203C3.87532 8.18235 3.9835 8.13764 4.09626 8.13772L12.6858 8.1446L8.30626 3.75845C8.22663 3.6787 8.18194 3.57058 8.18203 3.45788C8.18211 3.34517 8.22697 3.23712 8.30672 3.15749C8.38647 3.07786 8.49459 3.03317 8.60729 3.03326C8.71999 3.03334 8.82804 3.0782 8.90767 3.15795L14.0119 8.26993C14.0915 8.34968 14.1362 8.4578 14.1362 8.5705C14.1361 8.6832 14.0912 8.79125 14.0115 8.87089Z" fill="white"/>
</svg>