<svg width="25" height="25" viewBox="0 0 25 25" fill="none" xmlns="http://www.w3.org/2000/svg">
<g id="Tiempo para completar">
<path id="Vector" d="M10.3603 4.16816C10.3603 3.80201 10.6575 3.50485 11.0236 3.50485H16.0647C16.2406 3.50485 16.4094 3.57474 16.5338 3.69913C16.6581 3.82352 16.728 3.99224 16.728 4.16816C16.728 4.34408 16.6581 4.51279 16.5338 4.63719C16.4094 4.76158 16.2406 4.83147 16.0647 4.83147H11.0236C10.6575 4.83147 10.3603 4.5343 10.3603 4.16816ZM12.8809 15.0464C12.8809 15.2223 12.9507 15.391 13.0751 15.5154C13.1995 15.6398 13.3682 15.7097 13.5442 15.7097C13.7201 15.7097 13.8888 15.6398 14.0132 15.5154C14.1376 15.391 14.2075 15.2223 14.2075 15.0464V10.0053C14.2075 9.82934 14.1376 9.66062 14.0132 9.53623C13.8888 9.41183 13.7201 9.34195 13.5442 9.34195C13.3682 9.34195 13.1995 9.41183 13.0751 9.53623C12.9507 9.66062 12.8809 9.82934 12.8809 10.0053V15.0464ZM13.5442 6.15808C8.56193 6.15808 4.52319 10.1968 4.52319 15.179C4.52319 20.1613 8.56193 24.2 13.5442 24.2C18.5264 24.2 22.5651 20.1613 22.5651 15.179C22.5651 10.1968 18.5264 6.15808 13.5442 6.15808ZM5.84981 15.179C5.84981 10.9296 9.29475 7.48469 13.5442 7.48469C17.7936 7.48469 21.2385 10.9296 21.2385 15.179C21.2385 19.4285 17.7936 22.8734 13.5442 22.8734C9.29475 22.8734 5.84981 19.4285 5.84981 15.179ZM21.0448 6.35176C20.9204 6.22735 20.7517 6.15746 20.5757 6.15746C20.3998 6.15746 20.2311 6.22735 20.1067 6.35176C19.9822 6.47617 19.9123 6.64491 19.9123 6.82085C19.9123 6.9968 19.9822 7.16553 20.1067 7.28994L21.4333 8.61656C21.4949 8.67816 21.568 8.72702 21.6485 8.76036C21.729 8.7937 21.8152 8.81086 21.9024 8.81086C21.9895 8.81086 22.0757 8.7937 22.1562 8.76036C22.2367 8.72702 22.3098 8.67816 22.3714 8.61656C22.433 8.55496 22.4819 8.48182 22.5153 8.40134C22.5486 8.32085 22.5657 8.23458 22.5657 8.14747C22.5657 8.06035 22.5486 7.97408 22.5153 7.8936C22.4819 7.81311 22.433 7.73998 22.3714 7.67838L21.0448 6.35176Z" fill="white"/>
</g>
</svg>
